# xmcd
#
# Track frame offsets:
# 150
# 22341
# 38210
# 56284
# 84396
# 96193
# 113359
# 131692
# 149535
# 171991
# 196449
# 216967
#
# Disc length: 3400 seconds
#
#
# Revision: 0
# Processed by: cddbd v1.5.2PL0 Copyright (c) Steve Scherf et al.
# Submitted via: FreeRIP 2.945 
#
DISCID=ab0d460c
DTITLE=DeWayne Woods - Introducing DeWayne Woods and When Singers Meet
DYEAR=2006
DGENRE=Gospel
TTITLE0=Made a way
TTITLE1=Let Go
TTITLE2=You Shall Reap
TTITLE3=Strong Tower
TTITLE4=DeWayne's Testimony
TTITLE5=God Still Heals
TTITLE6=Sunshine featuring Cand West
TTITLE7=Bid Me to Come
TTITLE8=You Mean the World to Me
TTITLE9=I Wanna be Where you Are
TTITLE10=I lift my Hands
TTITLE11=God is featuring The Tri-City Singers
EXTD=
EXTT0=
EXTT1=
EXTT2=
EXTT3=
EXTT4=
EXTT5=
EXTT6=
EXTT7=
EXTT8=
EXTT9=
EXTT10=
EXTT11=
PLAYORDER=
